Coordinates
version=1
nRows=8
nColumns=36
inDegrees=yes

Units are S.I. units (second, meters, Newtons, ...)
If the header above contains a line with 'inDegrees', this indicates whether rotational values are in degrees (yes) or radians (no).

endheader
time	pelvis_tilt	pelvis_list	pelvis_rotation	pelvis_tx	pelvis_ty	pelvis_tz	hip_flexion_r	hip_adduction_r	hip_rotation_r	knee_angle_r	knee_angle_r_beta	ankle_angle_r	subtalar_angle_r	mtp_angle_r	hip_flexion_l	hip_adduction_l	hip_rotation_l	knee_angle_l	knee_angle_l_beta	ankle_angle_l	subtalar_angle_l	mtp_angle_l	lumbar_extension	lumbar_bending	lumbar_rotation	arm_flex_r	arm_add_r	arm_rot_r	elbow_flex_r	pro_sup_r	arm_flex_l	arm_add_l	arm_rot_l	elbow_flex_l	pro_sup_l
      4.68333330	    -23.38140561	     -2.73516760	     10.21409682	      0.77921610	      0.82514961	     -0.22481108	     64.90222594	     -8.57712767	     -3.58455978	     58.16159155	      1.01511127	     19.14014130	     -9.44039863	     -7.49999987	     65.30890552	     -3.25991226	      4.46548539	     56.17022562	      0.98035538	      7.82162964	    -22.91361283	     -7.49999987	    -25.40834066	      0.75073004	      3.53536035	     77.43585897	    -26.62251591	     26.94016235	     92.40160897	     88.72855029	     64.08723487	    -22.17231955	     17.56626504	    104.62263163	     79.18529385
      4.70000000	    -22.65556662	     -2.75877411	     10.39190015	      0.77987605	      0.84013399	     -0.22412781	     61.70264088	     -8.08908577	     -4.07160039	     54.98170475	      0.95961178	     18.28494288	    -10.43311829	     -7.49999987	     62.07785621	     -3.83146509	      3.96983449	     52.77537291	      0.92110402	      7.89242273	    -21.30407690	     -7.49999987	    -24.09179844	      0.86292262	      2.85837120	     73.05093725	    -27.08667846	     25.74778498	     92.22264822	     88.53464781	     60.85036729	    -26.23998492	     19.57702636	    105.74222103	     79.21798249
      4.71666670	    -21.83248362	     -2.86189339	     10.51448834	      0.78687790	      0.85767300	     -0.21975748	     58.22838647	     -7.41678901	     -4.57628144	     51.50705366	      0.89896767	     17.77584794	    -11.02187248	     -7.49999987	     58.74085037	     -4.38434950	      3.68044390	     49.46506034	      0.86332817	      7.39676210	    -20.28874777	     -7.49999987	    -22.97737562	      0.96801892	      2.63427356	     68.74929609	    -28.27574847	     25.22715546	     91.71613208	     86.32777737	     58.08364331	    -29.07283720	     20.48872584	    105.51901846	     77.91552239
      4.73333330	    -21.02821148	     -2.77091620	     10.59036873	      0.79492928	      0.87202423	     -0.22146906	     54.18563492	     -6.89080774	     -4.87709925	     46.96841531	      0.81975349	     17.44737797	    -11.16314521	     -7.49999987	     54.91473696	     -4.73974171	      3.32930524	     45.44674177	      0.79319528	      7.00696631	    -19.19565237	     -7.49999987	    -21.32248959	      0.93175942	      2.01626944	     63.48355769	    -29.08175511	     24.93656920	     91.35255910	     86.40067084	     53.84047092	    -31.56804144	     21.04697402	    104.68244213	     77.92980649
      4.75000000	    -19.86939931	     -2.47803081	     10.38902329	      0.80033787	      0.88772365	     -0.22062686	     49.75735165	     -6.23886790	     -4.81401967	     42.13706352	      0.73543050	     16.62991034	    -11.52246379	     -7.49999987	     50.60660137	     -4.98955573	      2.84832666	     41.13290809	      0.71790468	      6.40622564	    -18.33166334	     -7.49999987	    -20.39382738	      0.53897741	      1.38890615	     58.27562171	    -28.95298947	     22.03420230	     89.53873632	     86.34412221	     49.77891906	    -33.76545540	     20.12620981	    103.61853893	     77.78280299
      4.76666670	    -18.79480402	     -2.21877022	     10.37135540	      0.80478390	      0.90328081	     -0.21795375	     45.44511353	     -5.80160787	     -5.06721612	     37.15603339	      0.64849512	     15.88981261	    -11.23034546	     -7.49999987	     46.45247492	     -5.04166501	      2.63590836	     36.47471678	      0.63660390	      5.15701524	    -17.75736412	     -7.49999987	    -19.16890162	      0.28867890	      1.31142109	     53.25019436	    -29.60126238	     19.97611587	     88.15864192	     86.38614095	     44.83659614	    -34.87195783	     18.41689117	    101.98647303	     77.60195188
      4.78333330	    -17.58341229	     -1.84687416	     10.41378556	      0.81390858	      0.91543128	     -0.22255853	     41.11851655	     -5.74082755	     -5.53042159	     32.73439742	      0.57132301	     15.24993113	    -10.03455376	     -7.49999987	     41.96149068	     -4.87737217	      2.18275731	     31.88306635	      0.55646448	      4.64970632	    -16.56046743	     -7.49999987	    -17.82944070	      0.21624395	      1.37495846	     48.03092089	    -31.38345902	     19.32946628	     85.68004908	     86.63411552	     39.33645532	    -35.81439823	     17.50168958	     99.84765418	     77.56322797
      4.80000000	    -16.56419196	     -1.72690344	     10.49911759	      0.81421087	      0.92523705	     -0.21564525	     37.35304838	     -5.25475552	     -6.10094073	     28.59622754	      0.49909832	     14.59601815	     -8.89513053	     -7.49999987	     38.36828914	     -5.13519472	      1.43192050	     27.99909530	      0.48867640	      4.25710861	    -15.11955397	     -7.49999987	    -16.45588901	      0.26672434	      0.89136907	     42.99931782	    -31.21389641	     17.49947673	     83.98242802	     87.03250386	     34.41897302	    -36.96623646	     15.99651228	     97.69819964	     77.63724708
